<svg width="1728" height="1117" viewBox="0 0 1728 1117" fill="none" xmlns="http://www.w3.org/2000/svg">
<rect width="1728" height="1117" fill="white"/>
<line x1="8.00391" y1="1117" x2="8.00391" stroke="#F9F9F9" stroke-opacity="0.6"/>
<line x1="23.0127" y1="1117" x2="23.0127" stroke="#F9F9F9" stroke-opacity="0.6"/>
<line x1="38.0215" y1="1117" x2="38.0215" stroke="#F9F9F9" stroke-opacity="0.6"/>
<line x1="53.0303" y1="1117" x2="53.0303" stroke="#F9F9F9" stroke-opacity="0.6"/>
<line x1="68.0391" y1="1117" x2="68.0391" stroke="#F9F9F9" stroke-opacity="0.6"/>
<line x1="83.0479" y1="1117" x2="83.0479" stroke="#F9F9F9" stroke-opacity="0.6"/>
<line x1="98.0566" y1="1117" x2="98.0566" stroke="#F9F9F9" stroke-opacity="0.6"/>
<line x1="113.065" y1="1117" x2="113.065" stroke="#F9F9F9" stroke-opacity="0.6"/>
<line x1="128.074" y1="1117" x2="128.074" stroke="#F9F9F9" stroke-opacity="0.6"/>
<line x1="143.083" y1="1117" x2="143.083" stroke="#F9F9F9" stroke-opacity="0.6"/>
<line x1="158.092" y1="1117" x2="158.092" stroke="#F9F9F9" stroke-opacity="0.6"/>
<line x1="173.1" y1="1117" x2="173.1" stroke="#F9F9F9" stroke-opacity="0.6"/>
<line x1="188.108" y1="1117" x2="188.108" stroke="#F9F9F9" stroke-opacity="0.6"/>
<line x1="203.117" y1="1117" x2="203.117" stroke="#F9F9F9" stroke-opacity="0.6"/>
<line x1="218.126" y1="1117" x2="218.126" stroke="#F9F9F9" stroke-opacity="0.6"/>
<line x1="233.135" y1="1117" x2="233.135" stroke="#F9F9F9" stroke-opacity="0.6"/>
<line x1="248.144" y1="1117" x2="248.144" stroke="#F9F9F9" stroke-opacity="0.6"/>
<line x1="263.152" y1="1117" x2="263.152" stroke="#F9F9F9" stroke-opacity="0.6"/>
<line x1="278.161" y1="1117" x2="278.161" stroke="#F9F9F9" stroke-opacity="0.6"/>
<line x1="293.17" y1="1117" x2="293.17" stroke="#F9F9F9" stroke-opacity="0.6"/>
<line x1="308.179" y1="1117" x2="308.179" stroke="#F9F9F9" stroke-opacity="0.6"/>
<line x1="323.187" y1="1117" x2="323.187" stroke="#F9F9F9" stroke-opacity="0.6"/>
<line x1="338.195" y1="1117" x2="338.195" stroke="#F9F9F9" stroke-opacity="0.6"/>
<line x1="353.204" y1="1117" x2="353.204" stroke="#F9F9F9" stroke-opacity="0.6"/>
<line x1="368.213" y1="1117" x2="368.213" stroke="#F9F9F9" stroke-opacity="0.6"/>
<line x1="383.222" y1="1117" x2="383.222" stroke="#F9F9F9" stroke-opacity="0.6"/>
<line x1="398.23" y1="1117" x2="398.23" stroke="#F9F9F9" stroke-opacity="0.6"/>
<line x1="413.239" y1="1117" x2="413.239" stroke="#F9F9F9" stroke-opacity="0.6"/>
<line x1="428.248" y1="1117" x2="428.248" stroke="#F9F9F9" stroke-opacity="0.6"/>
<line x1="443.257" y1="1117" x2="443.257" stroke="#F9F9F9" stroke-opacity="0.6"/>
<line x1="458.266" y1="1117" x2="458.266" stroke="#F9F9F9" stroke-opacity="0.6"/>
<line x1="473.273" y1="1117" x2="473.273" stroke="#F9F9F9" stroke-opacity="0.6"/>
<line x1="488.282" y1="1117" x2="488.282" stroke="#F9F9F9" stroke-opacity="0.6"/>
<line x1="503.291" y1="1117" x2="503.291" stroke="#F9F9F9" stroke-opacity="0.6"/>
<line x1="518.3" y1="1117" x2="518.3" stroke="#F9F9F9" stroke-opacity="0.6"/>
<line x1="533.309" y1="1117" x2="533.309" stroke="#F9F9F9" stroke-opacity="0.6"/>
<line x1="548.317" y1="1117" x2="548.317" stroke="#F9F9F9" stroke-opacity="0.6"/>
<line x1="563.326" y1="1117" x2="563.326" stroke="#F9F9F9" stroke-opacity="0.6"/>
<line x1="578.335" y1="1117" x2="578.335" stroke="#F9F9F9" stroke-opacity="0.6"/>
<line x1="593.344" y1="1117" x2="593.344" stroke="#F9F9F9" stroke-opacity="0.6"/>
<line x1="608.352" y1="1117" x2="608.352" stroke="#F9F9F9" stroke-opacity="0.6"/>
<line x1="623.36" y1="1117" x2="623.36" stroke="#F9F9F9" stroke-opacity="0.6"/>
<line x1="638.369" y1="1117" x2="638.369" stroke="#F9F9F9" stroke-opacity="0.6"/>
<line x1="653.378" y1="1117" x2="653.378" stroke="#F9F9F9" stroke-opacity="0.6"/>
<line x1="668.387" y1="1117" x2="668.387" stroke="#F9F9F9" stroke-opacity="0.6"/>
<line x1="683.396" y1="1117" x2="683.396" stroke="#F9F9F9" stroke-opacity="0.6"/>
<line x1="698.404" y1="1117" x2="698.404" stroke="#F9F9F9" stroke-opacity="0.6"/>
<line x1="713.413" y1="1117" x2="713.413" stroke="#F9F9F9" stroke-opacity="0.6"/>
<line x1="728.422" y1="1117" x2="728.422" stroke="#F9F9F9" stroke-opacity="0.6"/>
<line x1="743.43" y1="1117" x2="743.43" stroke="#F9F9F9" stroke-opacity="0.6"/>
<line x1="758.438" y1="1117" x2="758.438" stroke="#F9F9F9" stroke-opacity="0.6"/>
<line x1="773.447" y1="1117" x2="773.447" stroke="#F9F9F9" stroke-opacity="0.6"/>
<line x1="788.456" y1="1117" x2="788.456" stroke="#F9F9F9" stroke-opacity="0.6"/>
<line x1="803.465" y1="1117" x2="803.465" stroke="#F9F9F9" stroke-opacity="0.6"/>
<line x1="818.474" y1="1117" x2="818.474" stroke="#F9F9F9" stroke-opacity="0.6"/>
<line x1="833.482" y1="1117" x2="833.482" stroke="#F9F9F9" stroke-opacity="0.6"/>
<line x1="848.49" y1="1117" x2="848.49" stroke="#F9F9F9" stroke-opacity="0.6"/>
<line x1="863.499" y1="1117" x2="863.499" stroke="#F9F9F9" stroke-opacity="0.6"/>
<line x1="878.508" y1="1117" x2="878.508" stroke="#F9F9F9" stroke-opacity="0.6"/>
<line x1="893.517" y1="1117" x2="893.517" stroke="#F9F9F9" stroke-opacity="0.6"/>
<line x1="908.525" y1="1117" x2="908.525" stroke="#F9F9F9" stroke-opacity="0.6"/>
<line x1="923.534" y1="1117" x2="923.534" stroke="#F9F9F9" stroke-opacity="0.6"/>
<line x1="938.543" y1="1117" x2="938.543" stroke="#F9F9F9" stroke-opacity="0.6"/>
<line x1="953.552" y1="1117" x2="953.552" stroke="#F9F9F9" stroke-opacity="0.6"/>
<line x1="968.561" y1="1117" x2="968.561" stroke="#F9F9F9" stroke-opacity="0.6"/>
<line x1="983.568" y1="1117" x2="983.568" stroke="#F9F9F9" stroke-opacity="0.6"/>
<line x1="998.577" y1="1117" x2="998.577" stroke="#F9F9F9" stroke-opacity="0.6"/>
<line x1="1013.59" y1="1117" x2="1013.59" stroke="#F9F9F9" stroke-opacity="0.6"/>
<line x1="1028.59" y1="1117" x2="1028.59" stroke="#F9F9F9" stroke-opacity="0.6"/>
<line x1="1043.6" y1="1117" x2="1043.6" stroke="#F9F9F9" stroke-opacity="0.6"/>
<line x1="1058.61" y1="1117" x2="1058.61" stroke="#F9F9F9" stroke-opacity="0.6"/>
<line x1="1073.62" y1="1117" x2="1073.62" stroke="#F9F9F9" stroke-opacity="0.6"/>
<line x1="1088.63" y1="1117" x2="1088.63" stroke="#F9F9F9" stroke-opacity="0.6"/>
<line x1="1103.64" y1="1117" x2="1103.64" stroke="#F9F9F9" stroke-opacity="0.6"/>
<line x1="1118.65" y1="1117" x2="1118.65" stroke="#F9F9F9" stroke-opacity="0.6"/>
<line x1="1133.66" y1="1117" x2="1133.66" stroke="#F9F9F9" stroke-opacity="0.6"/>
<line x1="1148.66" y1="1117" x2="1148.66" stroke="#F9F9F9" stroke-opacity="0.6"/>
<line x1="1163.67" y1="1117" x2="1163.67" stroke="#F9F9F9" stroke-opacity="0.6"/>
<line x1="1178.68" y1="1117" x2="1178.68" stroke="#F9F9F9" stroke-opacity="0.6"/>
<line x1="1193.69" y1="1117" x2="1193.69" stroke="#F9F9F9" stroke-opacity="0.6"/>
<line x1="1208.7" y1="1117" x2="1208.7" stroke="#F9F9F9" stroke-opacity="0.6"/>
<line x1="1223.71" y1="1117" x2="1223.71" stroke="#F9F9F9" stroke-opacity="0.6"/>
<line x1="1238.72" y1="1117" x2="1238.72" stroke="#F9F9F9" stroke-opacity="0.6"/>
<line x1="1253.72" y1="1117" x2="1253.72" stroke="#F9F9F9" stroke-opacity="0.6"/>
<line x1="1268.73" y1="1117" x2="1268.73" stroke="#F9F9F9" stroke-opacity="0.6"/>
<line x1="1283.74" y1="1117" x2="1283.74" stroke="#F9F9F9" stroke-opacity="0.6"/>
<line x1="1298.75" y1="1117" x2="1298.75" stroke="#F9F9F9" stroke-opacity="0.6"/>
<line x1="1313.76" y1="1117" x2="1313.76" stroke="#F9F9F9" stroke-opacity="0.6"/>
<line x1="1328.77" y1="1117" x2="1328.77" stroke="#F9F9F9" stroke-opacity="0.6"/>
<line x1="1343.78" y1="1117" x2="1343.78" stroke="#F9F9F9" stroke-opacity="0.6"/>
<line x1="1358.79" y1="1117" x2="1358.79" stroke="#F9F9F9" stroke-opacity="0.6"/>
<line x1="1373.79" y1="1117" x2="1373.79" stroke="#F9F9F9" stroke-opacity="0.6"/>
<line x1="1388.8" y1="1117" x2="1388.8" stroke="#F9F9F9" stroke-opacity="0.6"/>
<line x1="1403.81" y1="1117" x2="1403.81" stroke="#F9F9F9" stroke-opacity="0.6"/>
<line x1="1418.82" y1="1117" x2="1418.82" stroke="#F9F9F9" stroke-opacity="0.6"/>
<line x1="1433.83" y1="1117" x2="1433.83" stroke="#F9F9F9" stroke-opacity="0.6"/>
<line x1="1448.84" y1="1117" x2="1448.84" stroke="#F9F9F9" stroke-opacity="0.6"/>
<line x1="1463.85" y1="1117" x2="1463.85" stroke="#F9F9F9" stroke-opacity="0.6"/>
<line x1="1478.85" y1="1117" x2="1478.85" stroke="#F9F9F9" stroke-opacity="0.6"/>
<line x1="1493.86" y1="1117" x2="1493.86" stroke="#F9F9F9" stroke-opacity="0.6"/>
<line x1="1508.87" y1="1117" x2="1508.87" stroke="#F9F9F9" stroke-opacity="0.6"/>
<line x1="1523.88" y1="1117" x2="1523.88" stroke="#F9F9F9" stroke-opacity="0.6"/>
<line x1="1538.89" y1="1117" x2="1538.89" stroke="#F9F9F9" stroke-opacity="0.6"/>
<line x1="1553.9" y1="1117" x2="1553.9" stroke="#F9F9F9" stroke-opacity="0.6"/>
<line x1="1568.91" y1="1117" x2="1568.91" stroke="#F9F9F9" stroke-opacity="0.6"/>
<line x1="1583.92" y1="1117" x2="1583.92" stroke="#F9F9F9" stroke-opacity="0.6"/>
<line x1="1598.92" y1="1117" x2="1598.92" stroke="#F9F9F9" stroke-opacity="0.6"/>
<line x1="1613.93" y1="1117" x2="1613.93" stroke="#F9F9F9" stroke-opacity="0.6"/>
<line x1="1628.94" y1="1117" x2="1628.94" stroke="#F9F9F9" stroke-opacity="0.6"/>
<line x1="1643.95" y1="1117" x2="1643.95" stroke="#F9F9F9" stroke-opacity="0.6"/>
<line x1="1658.96" y1="1117" x2="1658.96" stroke="#F9F9F9" stroke-opacity="0.6"/>
<line x1="1673.97" y1="1117" x2="1673.97" stroke="#F9F9F9" stroke-opacity="0.6"/>
<line x1="1688.98" y1="1117" x2="1688.98" stroke="#F9F9F9" stroke-opacity="0.6"/>
<line x1="1703.98" y1="1117" x2="1703.98" stroke="#F9F9F9" stroke-opacity="0.6"/>
<line x1="1718.99" y1="1117" x2="1718.99" stroke="#F9F9F9" stroke-opacity="0.6"/>
<line x1="1" y1="7.36621" x2="1727" y2="7.36621" stroke="#F9F9F9" stroke-opacity="0.6"/>
<line x1="1" y1="23.0986" x2="1727" y2="23.0986" stroke="#F9F9F9" stroke-opacity="0.6"/>
<line x1="1" y1="38.8311" x2="1727" y2="38.8311" stroke="#F9F9F9" stroke-opacity="0.6"/>
<line x1="1" y1="54.5635" x2="1727" y2="54.5635" stroke="#F9F9F9" stroke-opacity="0.6"/>
<line x1="1" y1="70.2959" x2="1727" y2="70.2959" stroke="#F9F9F9" stroke-opacity="0.6"/>
<line x1="1" y1="86.0283" x2="1727" y2="86.0283" stroke="#F9F9F9" stroke-opacity="0.6"/>
<line x1="1" y1="101.761" x2="1727" y2="101.761" stroke="#F9F9F9" stroke-opacity="0.6"/>
<line x1="1" y1="117.493" x2="1727" y2="117.493" stroke="#F9F9F9" stroke-opacity="0.6"/>
<line x1="1" y1="133.226" x2="1727" y2="133.226" stroke="#F9F9F9" stroke-opacity="0.6"/>
<line x1="1" y1="148.958" x2="1727" y2="148.958" stroke="#F9F9F9" stroke-opacity="0.6"/>
<line x1="1" y1="164.69" x2="1727" y2="164.69" stroke="#F9F9F9" stroke-opacity="0.6"/>
<line x1="1" y1="180.422" x2="1727" y2="180.422" stroke="#F9F9F9" stroke-opacity="0.6"/>
<line x1="1" y1="196.155" x2="1727" y2="196.155" stroke="#F9F9F9" stroke-opacity="0.6"/>
<line x1="1" y1="211.887" x2="1727" y2="211.887" stroke="#F9F9F9" stroke-opacity="0.6"/>
<line x1="1" y1="227.62" x2="1727" y2="227.62" stroke="#F9F9F9" stroke-opacity="0.6"/>
<line x1="1" y1="243.352" x2="1727" y2="243.352" stroke="#F9F9F9" stroke-opacity="0.6"/>
<line x1="1" y1="259.084" x2="1727" y2="259.084" stroke="#F9F9F9" stroke-opacity="0.6"/>
<line x1="1" y1="274.817" x2="1727" y2="274.817" stroke="#F9F9F9" stroke-opacity="0.6"/>
<line x1="1" y1="290.549" x2="1727" y2="290.549" stroke="#F9F9F9" stroke-opacity="0.6"/>
<line x1="1" y1="306.282" x2="1727" y2="306.282" stroke="#F9F9F9" stroke-opacity="0.6"/>
<line x1="1" y1="322.014" x2="1727" y2="322.014" stroke="#F9F9F9" stroke-opacity="0.6"/>
<line x1="1" y1="337.747" x2="1727" y2="337.747" stroke="#F9F9F9" stroke-opacity="0.6"/>
<line x1="1" y1="353.479" x2="1727" y2="353.479" stroke="#F9F9F9" stroke-opacity="0.6"/>
<line x1="1" y1="369.211" x2="1727" y2="369.211" stroke="#F9F9F9" stroke-opacity="0.6"/>
<line x1="1" y1="384.944" x2="1727" y2="384.944" stroke="#F9F9F9" stroke-opacity="0.6"/>
<line x1="1" y1="400.676" x2="1727" y2="400.676" stroke="#F9F9F9" stroke-opacity="0.6"/>
<line x1="1" y1="416.408" x2="1727" y2="416.408" stroke="#F9F9F9" stroke-opacity="0.6"/>
<line x1="1" y1="432.141" x2="1727" y2="432.141" stroke="#F9F9F9" stroke-opacity="0.6"/>
<line x1="1" y1="447.873" x2="1727" y2="447.873" stroke="#F9F9F9" stroke-opacity="0.6"/>
<line x1="1" y1="463.605" x2="1727" y2="463.605" stroke="#F9F9F9" stroke-opacity="0.6"/>
<line x1="1" y1="479.338" x2="1727" y2="479.338" stroke="#F9F9F9" stroke-opacity="0.6"/>
<line x1="1" y1="495.07" x2="1727" y2="495.07" stroke="#F9F9F9" stroke-opacity="0.6"/>
<line x1="1" y1="510.803" x2="1727" y2="510.803" stroke="#F9F9F9" stroke-opacity="0.6"/>
<line x1="1" y1="526.535" x2="1727" y2="526.535" stroke="#F9F9F9" stroke-opacity="0.6"/>
<line x1="1" y1="542.268" x2="1727" y2="542.268" stroke="#F9F9F9" stroke-opacity="0.6"/>
<line x1="1" y1="558" x2="1727" y2="558" stroke="#F9F9F9" stroke-opacity="0.6"/>
<line x1="1" y1="573.732" x2="1727" y2="573.732" stroke="#F9F9F9" stroke-opacity="0.6"/>
<line x1="1" y1="589.465" x2="1727" y2="589.465" stroke="#F9F9F9" stroke-opacity="0.6"/>
<line x1="1" y1="605.197" x2="1727" y2="605.197" stroke="#F9F9F9" stroke-opacity="0.6"/>
<line x1="1" y1="620.93" x2="1727" y2="620.93" stroke="#F9F9F9" stroke-opacity="0.6"/>
<line x1="1" y1="636.662" x2="1727" y2="636.662" stroke="#F9F9F9" stroke-opacity="0.6"/>
<line x1="1" y1="652.395" x2="1727" y2="652.395" stroke="#F9F9F9" stroke-opacity="0.6"/>
<line x1="1" y1="668.127" x2="1727" y2="668.127" stroke="#F9F9F9" stroke-opacity="0.6"/>
<line x1="1" y1="683.859" x2="1727" y2="683.859" stroke="#F9F9F9" stroke-opacity="0.6"/>
<line x1="1" y1="699.592" x2="1727" y2="699.592" stroke="#F9F9F9" stroke-opacity="0.6"/>
<line x1="1" y1="715.324" x2="1727" y2="715.324" stroke="#F9F9F9" stroke-opacity="0.6"/>
<line x1="1" y1="731.057" x2="1727" y2="731.057" stroke="#F9F9F9" stroke-opacity="0.6"/>
<line x1="1" y1="746.789" x2="1727" y2="746.789" stroke="#F9F9F9" stroke-opacity="0.6"/>
<line x1="1" y1="762.521" x2="1727" y2="762.521" stroke="#F9F9F9" stroke-opacity="0.6"/>
<line x1="1" y1="778.254" x2="1727" y2="778.254" stroke="#F9F9F9" stroke-opacity="0.6"/>
<line x1="1" y1="793.986" x2="1727" y2="793.986" stroke="#F9F9F9" stroke-opacity="0.6"/>
<line x1="1" y1="809.719" x2="1727" y2="809.719" stroke="#F9F9F9" stroke-opacity="0.6"/>
<line x1="1" y1="825.451" x2="1727" y2="825.451" stroke="#F9F9F9" stroke-opacity="0.6"/>
<line x1="1" y1="841.184" x2="1727" y2="841.184" stroke="#F9F9F9" stroke-opacity="0.6"/>
<line x1="1" y1="856.916" x2="1727" y2="856.916" stroke="#F9F9F9" stroke-opacity="0.6"/>
<line x1="1" y1="872.648" x2="1727" y2="872.648" stroke="#F9F9F9" stroke-opacity="0.6"/>
<line x1="1" y1="888.381" x2="1727" y2="888.381" stroke="#F9F9F9" stroke-opacity="0.6"/>
<line x1="1" y1="904.113" x2="1727" y2="904.113" stroke="#F9F9F9" stroke-opacity="0.6"/>
<line x1="1" y1="919.846" x2="1727" y2="919.846" stroke="#F9F9F9" stroke-opacity="0.6"/>
<line x1="1" y1="935.578" x2="1727" y2="935.578" stroke="#F9F9F9" stroke-opacity="0.6"/>
<line x1="1" y1="951.311" x2="1727" y2="951.311" stroke="#F9F9F9" stroke-opacity="0.6"/>
<line x1="1" y1="967.043" x2="1727" y2="967.043" stroke="#F9F9F9" stroke-opacity="0.6"/>
<line x1="1" y1="982.775" x2="1727" y2="982.775" stroke="#F9F9F9" stroke-opacity="0.6"/>
<line x1="1" y1="998.508" x2="1727" y2="998.508" stroke="#F9F9F9" stroke-opacity="0.6"/>
<line x1="1" y1="1014.24" x2="1727" y2="1014.24" stroke="#F9F9F9" stroke-opacity="0.6"/>
<line x1="1" y1="1029.97" x2="1727" y2="1029.97" stroke="#F9F9F9" stroke-opacity="0.6"/>
<line x1="1" y1="1045.71" x2="1727" y2="1045.71" stroke="#F9F9F9" stroke-opacity="0.6"/>
<line x1="1" y1="1061.44" x2="1727" y2="1061.44" stroke="#F9F9F9" stroke-opacity="0.6"/>
<line x1="1" y1="1077.17" x2="1727" y2="1077.17" stroke="#F9F9F9" stroke-opacity="0.6"/>
<line x1="1" y1="1092.9" x2="1727" y2="1092.9" stroke="#F9F9F9" stroke-opacity="0.6"/>
<line x1="1" y1="1108.63" x2="1727" y2="1108.63" stroke="#F9F9F9" stroke-opacity="0.6"/>
</svg>
